<svg width="162" height="42" viewBox="0 0 162 42" fill="none" xmlns="http://www.w3.org/2000/svg">
<path d="M51.3466 32H44.6435V13.0909H51.402C53.304 13.0909 54.9413 13.4695 56.3139 14.2266C57.6866 14.9775 58.7422 16.0578 59.4808 17.4673C60.2256 18.8769 60.598 20.5634 60.598 22.527C60.598 24.4967 60.2256 26.1894 59.4808 27.6051C58.7422 29.0208 57.6804 30.1072 56.2955 30.8643C54.9167 31.6214 53.267 32 51.3466 32ZM48.6413 28.5746H51.1804C52.3622 28.5746 53.3563 28.3653 54.1626 27.9467C54.9751 27.522 55.5845 26.8665 55.9908 25.9801C56.4032 25.0876 56.6094 23.9366 56.6094 22.527C56.6094 21.1297 56.4032 19.9879 55.9908 19.1016C55.5845 18.2152 54.9782 17.5627 54.1719 17.1442C53.3655 16.7256 52.3714 16.5163 51.1896 16.5163H48.6413V28.5746ZM69.9487 32.277C68.4899 32.277 67.2342 31.9815 66.1816 31.3906C65.1352 30.7936 64.3289 29.9503 63.7626 28.8608C63.1963 27.7652 62.9132 26.4695 62.9132 24.9737C62.9132 23.5149 63.1963 22.2346 63.7626 21.1328C64.3289 20.031 65.126 19.1723 66.1539 18.5568C67.188 17.9413 68.4006 17.6335 69.7917 17.6335C70.7273 17.6335 71.5983 17.7843 72.4047 18.0859C73.2172 18.3814 73.925 18.8277 74.5282 19.4247C75.1376 20.0218 75.6116 20.7727 75.9501 21.6776C76.2886 22.5762 76.4579 23.6288 76.4579 24.8352V25.9155H64.4828V23.478H72.7555C72.7555 22.9117 72.6324 22.41 72.3862 21.973C72.14 21.536 71.7984 21.1944 71.3613 20.9482C70.9305 20.6958 70.4288 20.5696 69.8564 20.5696C69.2593 20.5696 68.7299 20.7081 68.2683 20.9851C67.8128 21.2559 67.4558 21.6222 67.1973 22.0838C66.9387 22.5393 66.8064 23.0471 66.8002 23.6072V25.9247C66.8002 26.6264 66.9295 27.2327 67.188 27.7436C67.4527 28.2545 67.8251 28.6484 68.3052 28.9254C68.7853 29.2024 69.3547 29.3409 70.0133 29.3409C70.4503 29.3409 70.8504 29.2794 71.2136 29.1562C71.5768 29.0331 71.8876 28.8485 72.1461 28.6023C72.4047 28.3561 72.6016 28.0545 72.737 27.6974L76.3748 27.9375C76.1902 28.8116 75.8116 29.5748 75.2392 30.2273C74.6729 30.8736 73.9404 31.3783 73.0417 31.7415C72.1492 32.0985 71.1182 32.277 69.9487 32.277ZM91.8654 17.8182L86.9073 32H82.4755L77.5174 17.8182H81.6722L84.6175 27.9652H84.7653L87.7013 17.8182H91.8654Z" fill="#C4C4CC"/>
<path d="M99.9696 32V13.0909H103.968V28.7038H112.074V32H99.9696ZM114.648 32V17.8182H118.581V32H114.648ZM116.624 15.9901C116.039 15.9901 115.537 15.7962 115.119 15.4084C114.706 15.0144 114.5 14.5436 114.5 13.9957C114.5 13.4541 114.706 12.9893 115.119 12.6016C115.537 12.2076 116.039 12.0107 116.624 12.0107C117.208 12.0107 117.707 12.2076 118.119 12.6016C118.538 12.9893 118.747 13.4541 118.747 13.9957C118.747 14.5436 118.538 15.0144 118.119 15.4084C117.707 15.7962 117.208 15.9901 116.624 15.9901ZM125.665 23.8011V32H121.732V17.8182H125.48V20.3203H125.646C125.96 19.4955 126.487 18.843 127.225 18.3629C127.964 17.8767 128.86 17.6335 129.912 17.6335C130.897 17.6335 131.756 17.849 132.488 18.2798C133.221 18.7107 133.79 19.3262 134.196 20.1264C134.602 20.9205 134.806 21.8684 134.806 22.9702V32H130.872V23.6719C130.878 22.804 130.657 22.1269 130.208 21.6406C129.758 21.1482 129.14 20.902 128.352 20.902C127.822 20.902 127.355 21.0159 126.948 21.2436C126.548 21.4714 126.234 21.8037 126.007 22.2408C125.785 22.6716 125.671 23.1918 125.665 23.8011ZM141.469 27.919L141.479 23.201H142.051L146.594 17.8182H151.109L145.006 24.946H144.073L141.469 27.919ZM137.906 32V13.0909H141.839V32H137.906ZM146.769 32L142.596 25.8232L145.218 23.044L151.376 32H146.769Z" fill="#7B2CBF"/>
<path d="M44.6435 32H44.5435V32.1H44.6435V32ZM44.6435 13.0909V12.9909H44.5435V13.0909H44.6435ZM56.3139 14.2266L56.2656 14.3141L56.2659 14.3143L56.3139 14.2266ZM59.4808 17.4673L59.3922 17.5137L59.3924 17.514L59.4808 17.4673ZM59.4808 27.6051L59.3923 27.5586L59.3922 27.5589L59.4808 27.6051ZM56.2955 30.8643L56.2475 30.7766L56.2473 30.7767L56.2955 30.8643ZM48.6413 28.5746H48.5413V28.6746H48.6413V28.5746ZM54.1626 27.9467L54.2087 28.0355L54.209 28.0354L54.1626 27.9467ZM55.9908 25.9801L55.9 25.9382L55.8999 25.9384L55.9908 25.9801ZM55.9908 19.1016L55.8999 19.1432L55.9001 19.1437L55.9908 19.1016ZM54.1719 17.1442L54.2179 17.0554L54.2179 17.0554L54.1719 17.1442ZM48.6413 16.5163V16.4163H48.5413V16.5163H48.6413ZM51.3466 31.9H44.6435V32.1H51.3466V31.9ZM44.7435 32V13.0909H44.5435V32H44.7435ZM44.6435 13.1909H51.402V12.9909H44.6435V13.1909ZM51.402 13.1909C53.2907 13.1909 54.9106 13.5668 56.2656 14.3141L56.3622 14.139C54.9719 13.3722 53.3173 12.9909 51.402 12.9909V13.1909ZM56.2659 14.3143C57.6209 15.0556 58.6626 16.1213 59.3922 17.5137L59.5694 17.4209C58.8218 15.9942 57.7522 14.8994 56.3619 14.1388L56.2659 14.3143ZM59.3924 17.514C60.128 18.9063 60.498 20.576 60.498 22.527H60.698C60.698 20.5509 60.3232 18.8475 59.5692 17.4206L59.3924 17.514ZM60.498 22.527C60.498 24.4842 60.128 26.1601 59.3923 27.5586L59.5693 27.6517C60.3232 26.2186 60.698 24.5092 60.698 22.527H60.498ZM59.3922 27.5589C58.6626 28.9572 57.6148 30.0291 56.2475 30.7766L56.3434 30.9521C57.746 30.1854 58.8218 29.0844 59.5695 27.6514L59.3922 27.5589ZM56.2473 30.7767C54.8862 31.5241 53.2539 31.9 51.3466 31.9V32.1C53.2802 32.1 54.9471 31.7188 56.3436 30.952L56.2473 30.7767ZM48.6413 28.6746H51.1804V28.4746H48.6413V28.6746ZM51.1804 28.6746C52.3736 28.6746 53.3845 28.4633 54.2087 28.0355L54.1166 27.858C53.3281 28.2673 52.3508 28.4746 51.1804 28.4746V28.6746ZM54.209 28.0354C55.0424 27.5997 55.6668 26.9269 56.0817 26.0218L55.8999 25.9384C55.5022 26.806 54.9079 27.4443 54.1163 27.8581L54.209 28.0354ZM56.0815 26.0221C56.5021 25.112 56.7094 23.9452 56.7094 22.527H56.5094C56.5094 23.9279 56.3043 25.0632 55.9 25.9382L56.0815 26.0221ZM56.7094 22.527C56.7094 21.121 56.502 19.9634 56.0814 19.0594L55.9001 19.1437C56.3043 20.0125 56.5094 21.1385 56.5094 22.527H56.7094ZM56.0817 19.0599C55.6669 18.1549 55.0456 17.485 54.2179 17.0554L54.1258 17.2329C54.9109 17.6405 55.5022 18.2755 55.8999 19.1432L56.0817 19.0599ZM54.2179 17.0554C53.3937 16.6276 52.3828 16.4163 51.1896 16.4163V16.6163C52.3601 16.6163 53.3373 16.8236 54.1258 17.2329L54.2179 17.0554ZM51.1896 16.4163H48.6413V16.6163H51.1896V16.4163ZM48.5413 16.5163V28.5746H48.7413V16.5163H48.5413ZM66.1816 31.3906L66.1321 31.4775L66.1327 31.4778L66.1816 31.3906ZM63.7626 28.8608L63.6738 28.9067L63.6739 28.9069L63.7626 28.8608ZM63.7626 21.1328L63.6737 21.0871L63.6737 21.0871L63.7626 21.1328ZM66.1539 18.5568L66.1028 18.4709L66.1026 18.471L66.1539 18.5568ZM72.4047 18.0859L72.3696 18.1796L72.3705 18.1799L72.4047 18.0859ZM74.5282 19.4247L74.4579 19.4958L74.4582 19.4961L74.5282 19.4247ZM75.9501 21.6776L75.8564 21.7126L75.8565 21.7128L75.9501 21.6776ZM76.4579 25.9155V26.0155H76.5579V25.9155H76.4579ZM64.4828 25.9155H64.3828V26.0155H64.4828V25.9155ZM64.4828 23.478V23.378H64.3828V23.478H64.4828ZM72.7555 23.478V23.578H72.8555V23.478H72.7555ZM72.3862 21.973L72.2991 22.0221L72.2991 22.0221L72.3862 21.973ZM71.3613 20.9482L71.3108 21.0345L71.3122 21.0353L71.3613 20.9482ZM68.2683 20.9851L68.3194 21.071L68.3197 21.0708L68.2683 20.9851ZM67.1973 22.0838L67.2842 22.1332L67.2845 22.1327L67.1973 22.0838ZM66.8002 23.6072L66.7002 23.6061V23.6072H66.8002ZM67.188 27.7436L67.0988 27.7888L67.0992 27.7896L67.188 27.7436ZM71.2136 29.1562L71.1815 29.0615L71.1815 29.0615L71.2136 29.1562ZM72.1461 28.6023L72.0772 28.5299L72.0772 28.5299L72.1461 28.6023ZM72.737 27.6974L72.7436 27.5977L72.6698 27.5928L72.6435 27.662L72.737 27.6974ZM76.3748 27.9375L76.4727 27.9582L76.4965 27.8453L76.3814 27.8377L76.3748 27.9375ZM75.2392 30.2273L75.164 30.1613L75.164 30.1614L75.2392 30.2273ZM73.0417 31.7415L73.0789 31.8343L73.0792 31.8342L73.0417 31.7415ZM69.9487 32.177C68.5035 32.177 67.2654 31.8844 66.2306 31.3034L66.1327 31.4778C67.203 32.0787 68.4763 32.377 69.9487 32.377V32.177ZM66.2312 31.3038C65.2018 30.7164 64.4089 29.8874 63.8513 28.8147L63.6739 28.9069C64.2489 30.0131 65.0686 30.8707 66.1321 31.4775L66.2312 31.3038ZM63.8514 28.8149C63.2939 27.7361 63.0132 26.4568 63.0132 24.9737H62.8132C62.8132 26.4821 63.0987 27.7942 63.6738 28.9067L63.8514 28.8149ZM63.0132 24.9737C63.0132 23.528 63.2937 22.2639 63.8515 21.1785L63.6737 21.0871C63.0989 22.2053 62.8132 23.5018 62.8132 24.9737H63.0132ZM63.8515 21.1785C64.4096 20.0927 65.194 19.2482 66.2053 18.6426L66.1026 18.471C65.0581 19.0965 64.2482 19.9693 63.6737 21.0871L63.8515 21.1785ZM66.2051 18.6427C67.2214 18.0378 68.4158 17.7335 69.7917 17.7335V17.5335C68.3855 17.5335 67.1546 17.8448 66.1028 18.4709L66.2051 18.6427ZM69.7917 17.7335C70.7164 17.7335 71.5754 17.8825 72.3696 18.1796L72.4397 17.9923C71.6212 17.6861 70.7383 17.5335 69.7917 17.5335V17.7335ZM72.3705 18.1799C73.1697 18.4705 73.8651 18.9091 74.4579 19.4958L74.5986 19.3536C73.9849 18.7462 73.2646 18.2923 72.4388 17.992L72.3705 18.1799ZM74.4582 19.4961C75.0559 20.0817 75.5224 20.8197 75.8564 21.7126L76.0438 21.6425C75.7008 20.7258 75.2194 19.9619 74.5982 19.3533L74.4582 19.4961ZM75.8565 21.7128C76.1899 22.5977 76.3579 23.6379 76.3579 24.8352H76.5579C76.5579 23.6197 76.3874 22.5547 76.0437 21.6423L75.8565 21.7128ZM76.3579 24.8352V25.9155H76.5579V24.8352H76.3579ZM76.4579 25.8155H64.4828V26.0155H76.4579V25.8155ZM64.5828 25.9155V23.478H64.3828V25.9155H64.5828ZM64.4828 23.578H72.7555V23.378H64.4828V23.578ZM72.8555 23.478C72.8555 22.8968 72.729 22.3778 72.4733 21.9239L72.2991 22.0221C72.5358 22.4423 72.6555 22.9266 72.6555 23.478H72.8555ZM72.4733 21.9239C72.2181 21.471 71.8634 21.1162 71.4104 20.861L71.3122 21.0353C71.7334 21.2725 72.0618 21.601 72.2991 22.0221L72.4733 21.9239ZM71.4119 20.8619C70.9635 20.5993 70.4439 20.4696 69.8564 20.4696V20.6696C70.4137 20.6696 70.8974 20.7923 71.3108 21.0344L71.4119 20.8619ZM69.8564 20.4696C69.2432 20.4696 68.6957 20.612 68.2168 20.8993L68.3197 21.0708C68.7642 20.8042 69.2754 20.6696 69.8564 20.6696V20.4696ZM68.2172 20.8991C67.7466 21.1789 67.3771 21.5579 67.11 22.0349L67.2845 22.1327C67.5344 21.6864 67.879 21.3329 68.3194 21.071L68.2172 20.8991ZM67.1103 22.0344C66.8428 22.5057 66.7066 23.0303 66.7003 23.6061L66.9002 23.6083C66.9062 23.0639 67.0346 22.5729 67.2842 22.1332L67.1103 22.0344ZM66.7002 23.6072V25.9247H66.9002V23.6072H66.7002ZM66.7002 25.9247C66.7002 26.6386 66.8318 27.2611 67.0988 27.7888L67.2773 27.6985C67.0272 27.2044 66.9002 26.6142 66.9002 25.9247H66.7002ZM67.0992 27.7896C67.3724 28.3168 67.7579 28.7251 68.2552 29.012L68.3552 28.8388C67.8923 28.5717 67.5331 28.1922 67.2768 27.6976L67.0992 27.7896ZM68.2552 29.012C68.7532 29.2993 69.3405 29.4409 70.0133 29.4409V29.2409C69.3689 29.2409 68.8175 29.1055 68.3552 28.8388L68.2552 29.012ZM70.0133 29.4409C70.4598 29.4409 70.8709 29.378 71.2457 29.251L71.1815 29.0615C70.83 29.1807 70.4409 29.2409 70.0133 29.2409V29.4409ZM71.2457 29.251C71.6216 29.1235 71.9453 28.9316 72.2151 28.6747L72.0772 28.5299C71.8299 28.7653 71.5319 28.9428 71.1815 29.0615L71.2457 29.251ZM72.2151 28.6747C72.4852 28.4174 72.6902 28.1029 72.8305 27.7329L72.6435 27.662C72.5131 28.006 72.3241 28.2947 72.0772 28.5299L72.2151 28.6747ZM72.7305 27.7972L76.3682 28.0373L76.3814 27.8377L72.7436 27.5977L72.7305 27.7972ZM76.277 27.9168C76.0958 28.7746 75.7248 29.5221 75.164 30.1613L75.3143 30.2932C75.8984 29.6275 76.2846 28.8485 76.4727 27.9582L76.277 27.9168ZM75.164 30.1614C74.6092 30.7945 73.8903 31.2907 73.0043 31.6488L73.0792 31.8342C73.9905 31.4659 74.7365 30.9527 75.3144 30.2932L75.164 30.1614ZM73.0046 31.6486C72.1261 32 71.1082 32.177 69.9487 32.177V32.377C71.1282 32.377 72.1723 32.197 73.0789 31.8343L73.0046 31.6486ZM91.8654 17.8182L91.9598 17.8512L92.0063 17.7182H91.8654V17.8182ZM86.9073 32V32.1H86.9783L87.0017 32.033L86.9073 32ZM82.4755 32L82.3811 32.033L82.4045 32.1H82.4755V32ZM77.5174 17.8182V17.7182H77.3765L77.423 17.8512L77.5174 17.8182ZM81.6722 17.8182L81.7683 17.7903L81.7473 17.7182H81.6722V17.8182ZM84.6175 27.9652L84.5215 27.9931L84.5424 28.0652H84.6175V27.9652ZM84.7653 27.9652V28.0652H84.8404L84.8613 27.993L84.7653 27.9652ZM87.7013 17.8182V17.7182H87.6262L87.6053 17.7904L87.7013 17.8182ZM91.771 17.7852L86.8129 31.967L87.0017 32.033L91.9598 17.8512L91.771 17.7852ZM86.9073 31.9H82.4755V32.1H86.9073V31.9ZM82.5699 31.967L77.6118 17.7852L77.423 17.8512L82.3811 32.033L82.5699 31.967ZM77.5174 17.9182H81.6722V17.7182H77.5174V17.9182ZM81.5762 17.8461L84.5215 27.9931L84.7136 27.9373L81.7683 17.7903L81.5762 17.8461ZM84.6175 28.0652H84.7653V27.8652H84.6175V28.0652ZM84.8613 27.993L87.7974 17.846L87.6053 17.7904L84.6692 27.9374L84.8613 27.993ZM87.7013 17.9182H91.8654V17.7182H87.7013V17.9182ZM99.9696 32H99.8696V32.1H99.9696V32ZM99.9696 13.0909V12.9909H99.8696V13.0909H99.9696ZM103.968 13.0909H104.068V12.9909H103.968V13.0909ZM103.968 28.7038H103.868V28.8038H103.968V28.7038ZM112.074 28.7038H112.174V28.6038H112.074V28.7038ZM112.074 32V32.1H112.174V32H112.074ZM100.07 32V13.0909H99.8696V32H100.07ZM99.9696 13.1909H103.968V12.9909H99.9696V13.1909ZM103.868 13.0909V28.7038H104.068V13.0909H103.868ZM103.968 28.8038H112.074V28.6038H103.968V28.8038ZM111.974 28.7038V32H112.174V28.7038H111.974ZM112.074 31.9H99.9696V32.1H112.074V31.9ZM114.648 32H114.548V32.1H114.648V32ZM114.648 17.8182V17.7182H114.548V17.8182H114.648ZM118.581 17.8182H118.681V17.7182H118.581V17.8182ZM118.581 32V32.1H118.681V32H118.581ZM115.119 15.4084L115.05 15.4807L115.051 15.4817L115.119 15.4084ZM115.119 12.6016L115.187 12.6744L115.187 12.6744L115.119 12.6016ZM118.119 12.6016L118.05 12.6739L118.051 12.6749L118.119 12.6016ZM118.119 15.4084L118.188 15.4812L118.188 15.4812L118.119 15.4084ZM114.748 32V17.8182H114.548V32H114.748ZM114.648 17.9182H118.581V17.7182H114.648V17.9182ZM118.481 17.8182V32H118.681V17.8182H118.481ZM118.581 31.9H114.648V32.1H118.581V31.9ZM116.624 15.8901C116.063 15.8901 115.586 15.7052 115.187 15.335L115.051 15.4817C115.488 15.8871 116.014 16.0901 116.624 16.0901V15.8901ZM115.188 15.3361C114.794 14.9601 114.6 14.515 114.6 13.9957H114.4C114.4 14.5721 114.618 15.0688 115.05 15.4807L115.188 15.3361ZM114.6 13.9957C114.6 13.483 114.794 13.0443 115.187 12.6744L115.05 12.5287C114.619 12.9344 114.4 13.4251 114.4 13.9957H114.6ZM115.187 12.6744C115.587 12.2982 116.064 12.1107 116.624 12.1107V11.9107C116.014 11.9107 115.488 12.117 115.05 12.5287L115.187 12.6744ZM116.624 12.1107C117.183 12.1107 117.657 12.2982 118.05 12.6739L118.188 12.5293C117.757 12.117 117.233 11.9107 116.624 11.9107V12.1107ZM118.051 12.6749C118.451 13.0449 118.647 13.4835 118.647 13.9957H118.847C118.847 13.4246 118.625 12.9338 118.187 12.5282L118.051 12.6749ZM118.647 13.9957C118.647 14.5145 118.45 14.9595 118.051 15.3356L118.188 15.4812C118.625 15.0694 118.847 14.5726 118.847 13.9957H118.647ZM118.051 15.3355C117.658 15.7052 117.184 15.8901 116.624 15.8901V16.0901C117.233 16.0901 117.756 15.8871 118.188 15.4812L118.051 15.3355ZM125.665 23.8011L125.565 23.8001V23.8011H125.665ZM125.665 32V32.1H125.765V32H125.665ZM121.732 32H121.632V32.1H121.732V32ZM121.732 17.8182V17.7182H121.632V17.8182H121.732ZM125.48 17.8182H125.58V17.7182H125.48V17.8182ZM125.48 20.3203H125.38V20.4203H125.48V20.3203ZM125.646 20.3203V20.4203H125.715L125.74 20.3559L125.646 20.3203ZM127.225 18.3629L127.28 18.4468L127.28 18.4465L127.225 18.3629ZM132.488 18.2798L132.539 18.1936L132.488 18.2798ZM134.196 20.1264L134.107 20.1717L134.107 20.172L134.196 20.1264ZM134.806 32V32.1H134.906V32H134.806ZM130.872 32H130.772V32.1H130.872V32ZM130.872 23.6719L130.772 23.6712V23.6719H130.872ZM130.208 21.6406L130.134 21.708L130.134 21.7085L130.208 21.6406ZM126.948 21.2436L126.899 21.1564L126.899 21.1567L126.948 21.2436ZM126.007 22.2408L125.918 22.1946L125.918 22.195L126.007 22.2408ZM125.565 23.8011V32H125.765V23.8011H125.565ZM125.665 31.9H121.732V32.1H125.665V31.9ZM121.832 32V17.8182H121.632V32H121.832ZM121.732 17.9182H125.48V17.7182H121.732V17.9182ZM125.38 17.8182V20.3203H125.58V17.8182H125.38ZM125.48 20.4203H125.646V20.2203H125.48V20.4203ZM125.74 20.3559C126.046 19.5508 126.559 18.9153 127.28 18.4468L127.171 18.2791C126.414 18.7708 125.874 19.4402 125.553 20.2847L125.74 20.3559ZM127.28 18.4465C128 17.9728 128.875 17.7335 129.912 17.7335V17.5335C128.844 17.5335 127.928 17.7805 127.17 18.2794L127.28 18.4465ZM129.912 17.7335C130.882 17.7335 131.723 17.9455 132.437 18.366L132.539 18.1936C131.789 17.7524 130.912 17.5335 129.912 17.5335V17.7335ZM132.437 18.366C133.152 18.7867 133.709 19.3875 134.107 20.1717L134.285 20.0812C133.871 19.2649 133.289 18.6347 132.539 18.1936L132.437 18.366ZM134.107 20.172C134.505 20.949 134.706 21.8805 134.706 22.9702H134.906C134.906 21.8562 134.7 20.8919 134.285 20.0809L134.107 20.172ZM134.706 22.9702V32H134.906V22.9702H134.706ZM134.806 31.9H130.872V32.1H134.806V31.9ZM130.972 32V23.6719H130.772V32H130.972ZM130.972 23.6726C130.979 22.7874 130.752 22.0829 130.281 21.5728L130.134 21.7085C130.561 22.1709 130.778 22.8205 130.772 23.6712L130.972 23.6726ZM130.281 21.5732C129.81 21.0562 129.162 20.802 128.352 20.802V21.002C129.117 21.002 129.707 21.2402 130.134 21.708L130.281 21.5732ZM128.352 20.802C127.808 20.802 127.323 20.9192 126.899 21.1564L126.997 21.3308C127.387 21.1126 127.837 21.002 128.352 21.002V20.802ZM126.899 21.1567C126.481 21.3946 126.154 21.7417 125.918 22.1946L126.095 22.287C126.315 21.8657 126.616 21.5481 126.998 21.3305L126.899 21.1567ZM125.918 22.195C125.687 22.6429 125.571 23.1791 125.565 23.8001L125.765 23.8021C125.771 23.2044 125.883 22.7004 126.095 22.2865L125.918 22.195ZM141.469 27.919L141.369 27.9188L141.369 28.1856L141.545 27.9849L141.469 27.919ZM141.479 23.201V23.101H141.379L141.379 23.2008L141.479 23.201ZM142.051 23.201V23.301H142.098L142.128 23.2655L142.051 23.201ZM146.594 17.8182V17.7182H146.547L146.517 17.7537L146.594 17.8182ZM151.109 17.8182L151.185 17.8832L151.326 17.7182H151.109V17.8182ZM145.006 24.946V25.046H145.052L145.082 25.0111L145.006 24.946ZM144.073 24.946V24.846H144.028L143.998 24.8801L144.073 24.946ZM137.906 32H137.806V32.1H137.906V32ZM137.906 13.0909V12.9909H137.806V13.0909H137.906ZM141.839 13.0909H141.939V12.9909H141.839V13.0909ZM141.839 32V32.1H141.939V32H141.839ZM146.769 32L146.686 32.056L146.716 32.1H146.769V32ZM142.596 25.8232L142.523 25.7545L142.468 25.8128L142.513 25.8791L142.596 25.8232ZM145.218 23.044L145.3 22.9874L145.23 22.8853L145.145 22.9754L145.218 23.044ZM151.376 32V32.1H151.567L151.459 31.9433L151.376 32ZM141.569 27.9192L141.579 23.2012L141.379 23.2008L141.369 27.9188L141.569 27.9192ZM141.479 23.301H142.051V23.101H141.479V23.301ZM142.128 23.2655L146.67 17.8827L146.517 17.7537L141.975 23.1365L142.128 23.2655ZM146.594 17.9182H151.109V17.7182H146.594V17.9182ZM151.033 17.7531L144.93 24.881L145.082 25.0111L151.185 17.8832L151.033 17.7531ZM145.006 24.846H144.073V25.046H145.006V24.846ZM143.998 24.8801L141.394 27.8532L141.545 27.9849L144.148 25.0119L143.998 24.8801ZM138.006 32V13.0909H137.806V32H138.006ZM137.906 13.1909H141.839V12.9909H137.906V13.1909ZM141.739 13.0909V32H141.939V13.0909H141.739ZM141.839 31.9H137.906V32.1H141.839V31.9ZM146.852 31.944L142.679 25.7672L142.513 25.8791L146.686 32.056L146.852 31.944ZM142.669 25.8918L145.291 23.1127L145.145 22.9754L142.523 25.7545L142.669 25.8918ZM145.136 23.1007L151.294 32.0567L151.459 31.9433L145.3 22.9874L145.136 23.1007ZM151.376 31.9H146.769V32.1H151.376V31.9Z" fill="white"/>
<path d="M15.75 11.8125V7.875" stroke="#7B2CBF" stroke-width="2.625" stroke-linecap="round" stroke-linejoin="round"/>
<path d="M26.25 34.125V30.1875" stroke="#7B2CBF" stroke-width="2.625" stroke-linecap="round" stroke-linejoin="round"/>
<path d="M11.8125 15.75H7.875" stroke="#7B2CBF" stroke-width="2.625" stroke-linecap="round" stroke-linejoin="round"/>
<path d="M34.125 26.25H30.1875" stroke="#7B2CBF" stroke-width="2.625" stroke-linecap="round" stroke-linejoin="round"/>
<path d="M11.6487 21.0656L9.79476 22.9195C8.56337 24.1509 7.87158 25.821 7.87158 27.5625C7.87158 28.4248 8.04142 29.2786 8.3714 30.0752C8.70138 30.8719 9.18504 31.5957 9.79476 32.2055C10.4045 32.8152 11.1283 33.2988 11.925 33.6288C12.7216 33.9588 13.5755 34.1286 14.4377 34.1286C16.1792 34.1286 17.8493 33.4368 19.0807 32.2055L20.9346 30.3516" stroke="#7B2CBF" stroke-width="2.625" stroke-linecap="round" stroke-linejoin="round"/>
<path d="M30.3516 20.9344L32.2055 19.0805C33.4369 17.8491 34.1287 16.1789 34.1287 14.4375C34.1287 12.696 33.4369 11.0259 32.2055 9.79452C30.9741 8.56313 29.304 7.87134 27.5625 7.87134C25.8211 7.87134 24.151 8.56313 22.9196 9.79452L21.0657 11.6484" stroke="#7B2CBF" stroke-width="2.625" stroke-linecap="round" stroke-linejoin="round"/>
</svg>
